<mxfile host="65bd71144e">
    <diagram name="Sequence Diagram" id="sequence-diagram">
        <mxGraphModel dx="1053" dy="403" grid="1" gridSize="10" guides="1" tooltips="1" connect="1" arrows="1" fold="1" page="1" pageScale="1" pageWidth="1400" pageHeight="1000" math="0" shadow="0">
            <root>
                <mxCell id="0"/>
                <mxCell id="1" parent="0"/>
                <mxCell id="title" value="Sequence Diagram -&amp;nbsp;&lt;span style=&quot;color: rgb(0, 0, 0);&quot;&gt;ระบบแนะนำหลักสูตรภาควิชาเทคโนโลยี สารสนเทศด้วย Chatbot&lt;/span&gt;" style="text;html=1;strokeColor=none;fillColor=none;align=center;verticalAlign=middle;whiteSpace=wrap;rounded=0;fontSize=16;fontStyle=1;" parent="1" vertex="1">
                    <mxGeometry x="150" y="10" width="500" height="30" as="geometry"/>
                </mxCell>
                <mxCell id="frontend-label" value="Frontend Components" style="text;html=1;strokeColor=none;fillColor=#e1f5fe;align=center;verticalAlign=middle;whiteSpace=wrap;rounded=1;fontSize=10;fontStyle=1;" parent="1" vertex="1">
                    <mxGeometry x="80" y="70" width="280" height="20" as="geometry"/>
                </mxCell>
                <mxCell id="service-label" value="Service Layer" style="text;html=1;strokeColor=none;fillColor=#f3e5f5;align=center;verticalAlign=middle;whiteSpace=wrap;rounded=1;fontSize=10;fontStyle=1;" parent="1" vertex="1">
                    <mxGeometry x="380" y="70" width="120" height="20" as="geometry"/>
                </mxCell>
                <mxCell id="external-label" value="External Services" style="text;html=1;strokeColor=none;fillColor=#fff8e1;align=center;verticalAlign=middle;whiteSpace=wrap;rounded=1;fontSize=10;fontStyle=1;" parent="1" vertex="1">
                    <mxGeometry x="520" y="70" width="280" height="20" as="geometry"/>
                </mxCell>
                <mxCell id="user" value="ผู้ใช้&#xa;(User)" style="rounded=1;whiteSpace=wrap;html=1;fillColor=#dae8fc;strokeColor=#6c8ebf;fontSize=11;fontStyle=1;" parent="1" vertex="1">
                    <mxGeometry x="80" y="100" width="80" height="50" as="geometry"/>
                </mxCell>
                <mxCell id="frontend" value="Frontend&#xa;(React App)" style="rounded=1;whiteSpace=wrap;html=1;fillColor=#d5e8d4;strokeColor=#82b366;fontSize=11;fontStyle=1;" parent="1" vertex="1">
                    <mxGeometry x="200" y="100" width="80" height="50" as="geometry"/>
                </mxCell>
                <mxCell id="auth-service" value="Auth Service&#xa;(AuthContext)" style="rounded=1;whiteSpace=wrap;html=1;fillColor=#d5e8d4;strokeColor=#82b366;fontSize=11;fontStyle=1;" parent="1" vertex="1">
                    <mxGeometry x="320" y="100" width="80" height="50" as="geometry"/>
                </mxCell>
                <mxCell id="firebase-service" value="Firebase&#xa;Service" style="rounded=1;whiteSpace=wrap;html=1;fillColor=#e1d5e7;strokeColor=#9673a6;fontSize=11;fontStyle=1;" parent="1" vertex="1">
                    <mxGeometry x="440" y="100" width="80" height="50" as="geometry"/>
                </mxCell>
                <mxCell id="firebase-backend" value="Firebase&#xa;Backend" style="rounded=1;whiteSpace=wrap;html=1;fillColor=#fff2cc;strokeColor=#d6b656;fontSize=11;fontStyle=1;" parent="1" vertex="1">
                    <mxGeometry x="560" y="100" width="80" height="50" as="geometry"/>
                </mxCell>
                <mxCell id="n8n-service" value="n8n&#xa;Chatbot" style="rounded=1;whiteSpace=wrap;html=1;fillColor=#fff2cc;strokeColor=#d6b656;fontSize=11;fontStyle=1;" parent="1" vertex="1">
                    <mxGeometry x="680" y="100" width="80" height="50" as="geometry"/>
                </mxCell>
                <mxCell id="user-lifeline" value="" style="html=1;points=[];perimeter=orthogonalPerimeter;outlineConnect=0;targetShapes=umlLifeline;portConstraint=eastwest;newEdgeStyle={&quot;edgeStyle&quot;:&quot;elbowEdgeStyle&quot;,&quot;elbow&quot;:&quot;vertical&quot;,&quot;curved&quot;:0,&quot;rounded&quot;:0};" parent="1" vertex="1">
                    <mxGeometry x="120" y="180" width="10" height="620" as="geometry"/>
                </mxCell>
                <mxCell id="frontend-lifeline" value="" style="html=1;points=[];perimeter=orthogonalPerimeter;outlineConnect=0;targetShapes=umlLifeline;portConstraint=eastwest;newEdgeStyle={&quot;edgeStyle&quot;:&quot;elbowEdgeStyle&quot;,&quot;elbow&quot;:&quot;vertical&quot;,&quot;curved&quot;:0,&quot;rounded&quot;:0};" parent="1" vertex="1">
                    <mxGeometry x="230" y="180" width="10" height="620" as="geometry"/>
                </mxCell>
                <mxCell id="auth-lifeline" value="" style="html=1;points=[];perimeter=orthogonalPerimeter;outlineConnect=0;targetShapes=umlLifeline;portConstraint=eastwest;newEdgeStyle={&quot;edgeStyle&quot;:&quot;elbowEdgeStyle&quot;,&quot;elbow&quot;:&quot;vertical&quot;,&quot;curved&quot;:0,&quot;rounded&quot;:0};" parent="1" vertex="1">
                    <mxGeometry x="350" y="180" width="10" height="620" as="geometry"/>
                </mxCell>
                <mxCell id="firebase-service-lifeline" value="" style="html=1;points=[];perimeter=orthogonalPerimeter;outlineConnect=0;targetShapes=umlLifeline;portConstraint=eastwest;newEdgeStyle={&quot;edgeStyle&quot;:&quot;elbowEdgeStyle&quot;,&quot;elbow&quot;:&quot;vertical&quot;,&quot;curved&quot;:0,&quot;rounded&quot;:0};" parent="1" vertex="1">
                    <mxGeometry x="470" y="180" width="10" height="620" as="geometry"/>
                </mxCell>
                <mxCell id="firebase-backend-lifeline" value="" style="html=1;points=[];perimeter=orthogonalPerimeter;outlineConnect=0;targetShapes=umlLifeline;portConstraint=eastwest;newEdgeStyle={&quot;edgeStyle&quot;:&quot;elbowEdgeStyle&quot;,&quot;elbow&quot;:&quot;vertical&quot;,&quot;curved&quot;:0,&quot;rounded&quot;:0};" parent="1" vertex="1">
                    <mxGeometry x="590" y="180" width="10" height="620" as="geometry"/>
                </mxCell>
                <mxCell id="n8n-lifeline" value="" style="html=1;points=[];perimeter=orthogonalPerimeter;outlineConnect=0;targetShapes=umlLifeline;portConstraint=eastwest;newEdgeStyle={&quot;edgeStyle&quot;:&quot;elbowEdgeStyle&quot;,&quot;elbow&quot;:&quot;vertical&quot;,&quot;curved&quot;:0,&quot;rounded&quot;:0};" parent="1" vertex="1">
                    <mxGeometry x="710" y="180" width="10" height="620" as="geometry"/>
                </mxCell>
                <mxCell id="section1-title" value="1. กระบวนการเข้าสู่ระบบ (Login Process)" style="text;html=1;strokeColor=none;fillColor=#e3f2fd;align=left;verticalAlign=middle;whiteSpace=wrap;rounded=1;fontSize=12;fontStyle=1;" parent="1" vertex="1">
                    <mxGeometry x="80" y="190" width="300" height="25" as="geometry"/>
                </mxCell>
                <mxCell id="msg1" value="1.1 กรอกข้อมูลเข้าสู่ระบบ" style="html=1;verticalAlign=bottom;endArrow=block;edgeStyle=elbowEdgeStyle;elbow=vertical;curved=0;rounded=0;fontSize=10;" parent="1" edge="1">
                    <mxGeometry relative="1" as="geometry">
                        <mxPoint x="125" y="240" as="sourcePoint"/>
                        <mxPoint x="235" y="240" as="targetPoint"/>
                    </mxGeometry>
                </mxCell>
                <mxCell id="msg2" value="1.2 เรียก login()" style="html=1;verticalAlign=bottom;endArrow=block;edgeStyle=elbowEdgeStyle;elbow=vertical;curved=0;rounded=0;fontSize=10;" parent="1" edge="1">
                    <mxGeometry relative="1" as="geometry">
                        <mxPoint x="245" y="255" as="sourcePoint"/>
                        <mxPoint x="355" y="255" as="targetPoint"/>
                    </mxGeometry>
                </mxCell>
                <mxCell id="msg3" value="1.3 เรียก signInWithEmailAndPassword()" style="html=1;verticalAlign=bottom;endArrow=block;edgeStyle=elbowEdgeStyle;elbow=vertical;curved=0;rounded=0;fontSize=10;" parent="1" edge="1">
                    <mxGeometry relative="1" as="geometry">
                        <mxPoint x="365" y="270" as="sourcePoint"/>
                        <mxPoint x="475" y="270" as="targetPoint"/>
                    </mxGeometry>
                </mxCell>
                <mxCell id="msg4" value="1.4 ยืนยันตัวตน" style="html=1;verticalAlign=bottom;endArrow=block;edgeStyle=elbowEdgeStyle;elbow=vertical;curved=0;rounded=0;fontSize=10;" parent="1" edge="1">
                    <mxGeometry relative="1" as="geometry">
                        <mxPoint x="485" y="285" as="sourcePoint"/>
                        <mxPoint x="595" y="285" as="targetPoint"/>
                    </mxGeometry>
                </mxCell>
                <mxCell id="msg5" value="1.5 ผลการยืนยัน" style="html=1;verticalAlign=bottom;endArrow=open;dashed=1;endSize=8;edgeStyle=elbowEdgeStyle;elbow=vertical;curved=0;rounded=0;fontSize=10;" parent="1" edge="1">
                    <mxGeometry relative="1" as="geometry">
                        <mxPoint x="595" y="300" as="sourcePoint"/>
                        <mxPoint x="485" y="300" as="targetPoint"/>
                    </mxGeometry>
                </mxCell>
                <mxCell id="msg6" value="1.6 อัปเดต AuthContext" style="html=1;verticalAlign=bottom;endArrow=open;dashed=1;endSize=8;edgeStyle=elbowEdgeStyle;elbow=vertical;curved=0;rounded=0;fontSize=10;" parent="1" edge="1">
                    <mxGeometry relative="1" as="geometry">
                        <mxPoint x="475" y="315" as="sourcePoint"/>
                        <mxPoint x="365" y="315" as="targetPoint"/>
                    </mxGeometry>
                </mxCell>
                <mxCell id="msg7" value="1.7 เปลี่ยนเส้นทางไปหน้าหลัก" style="html=1;verticalAlign=bottom;endArrow=open;dashed=1;endSize=8;edgeStyle=elbowEdgeStyle;elbow=vertical;curved=0;rounded=0;fontSize=10;" parent="1" edge="1">
                    <mxGeometry relative="1" as="geometry">
                        <mxPoint x="355" y="330" as="sourcePoint"/>
                        <mxPoint x="125" y="330" as="targetPoint"/>
                    </mxGeometry>
                </mxCell>
                <mxCell id="section2-title" value="2. การแสดงข้อมูลหลักสูตร (Curriculum Data Display)" style="text;html=1;strokeColor=none;fillColor=#f3e5f5;align=left;verticalAlign=middle;whiteSpace=wrap;rounded=1;fontSize=12;fontStyle=1;" parent="1" vertex="1">
                    <mxGeometry x="80" y="360" width="350" height="25" as="geometry"/>
                </mxCell>
                <mxCell id="msg8" value="2.1 เลือกปี/ภาคการศึกษา" style="html=1;verticalAlign=bottom;endArrow=block;edgeStyle=elbowEdgeStyle;elbow=vertical;curved=0;rounded=0;fontSize=10;" parent="1" edge="1">
                    <mxGeometry relative="1" as="geometry">
                        <mxPoint x="125" y="410" as="sourcePoint"/>
                        <mxPoint x="235" y="410" as="targetPoint"/>
                    </mxGeometry>
                </mxCell>
                <mxCell id="msg9" value="2.2 เรียก getCoursesByYear()" style="html=1;verticalAlign=bottom;endArrow=block;edgeStyle=elbowEdgeStyle;elbow=vertical;curved=0;rounded=0;fontSize=10;" parent="1" edge="1">
                    <mxGeometry relative="1" as="geometry">
                        <mxPoint x="245" y="425" as="sourcePoint"/>
                        <mxPoint x="475" y="425" as="targetPoint"/>
                    </mxGeometry>
                </mxCell>
                <mxCell id="msg10" value="2.3 ดึงข้อมูลรายวิชา" style="html=1;verticalAlign=bottom;endArrow=block;edgeStyle=elbowEdgeStyle;elbow=vertical;curved=0;rounded=0;fontSize=10;" parent="1" edge="1">
                    <mxGeometry relative="1" as="geometry">
                        <mxPoint x="485" y="440" as="sourcePoint"/>
                        <mxPoint x="595" y="440" as="targetPoint"/>
                    </mxGeometry>
                </mxCell>
                <mxCell id="msg11" value="2.4 ข้อมูลรายวิชา" style="html=1;verticalAlign=bottom;endArrow=open;dashed=1;endSize=8;edgeStyle=elbowEdgeStyle;elbow=vertical;curved=0;rounded=0;fontSize=10;" parent="1" edge="1">
                    <mxGeometry relative="1" as="geometry">
                        <mxPoint x="595" y="455" as="sourcePoint"/>
                        <mxPoint x="485" y="455" as="targetPoint"/>
                    </mxGeometry>
                </mxCell>
                <mxCell id="msg12" value="2.5 ส่งข้อมูลรายวิชา" style="html=1;verticalAlign=bottom;endArrow=open;dashed=1;endSize=8;edgeStyle=elbowEdgeStyle;elbow=vertical;curved=0;rounded=0;fontSize=10;" parent="1" edge="1">
                    <mxGeometry relative="1" as="geometry">
                        <mxPoint x="475" y="470" as="sourcePoint"/>
                        <mxPoint x="245" y="470" as="targetPoint"/>
                    </mxGeometry>
                </mxCell>
                <mxCell id="msg13" value="2.6 แสดงแผนภาพหลักสูตร" style="html=1;verticalAlign=bottom;endArrow=open;dashed=1;endSize=8;edgeStyle=elbowEdgeStyle;elbow=vertical;curved=0;rounded=0;fontSize=10;" parent="1" edge="1">
                    <mxGeometry relative="1" as="geometry">
                        <mxPoint x="235" y="485" as="sourcePoint"/>
                        <mxPoint x="125" y="485" as="targetPoint"/>
                    </mxGeometry>
                </mxCell>
                <mxCell id="section3-title" value="3. การแสดงเงื่อนไขรายวิชา (Prerequisite Visualization)" style="text;html=1;strokeColor=none;fillColor=#fff8e1;align=left;verticalAlign=middle;whiteSpace=wrap;rounded=1;fontSize=12;fontStyle=1;" parent="1" vertex="1">
                    <mxGeometry x="80" y="525" width="400" height="25" as="geometry"/>
                </mxCell>
                <mxCell id="msg14" value="3.1 คลิกรายวิชา" style="html=1;verticalAlign=bottom;endArrow=block;edgeStyle=elbowEdgeStyle;elbow=vertical;curved=0;rounded=0;fontSize=10;" parent="1" edge="1">
                    <mxGeometry relative="1" as="geometry">
                        <mxPoint x="125" y="565" as="sourcePoint"/>
                        <mxPoint x="235" y="565" as="targetPoint"/>
                    </mxGeometry>
                </mxCell>
                <mxCell id="msg15" value="3.2 เรียก getPrerequisites()" style="html=1;verticalAlign=bottom;endArrow=block;edgeStyle=elbowEdgeStyle;elbow=vertical;curved=0;rounded=0;fontSize=10;" parent="1" edge="1">
                    <mxGeometry relative="1" as="geometry">
                        <mxPoint x="245" y="580" as="sourcePoint"/>
                        <mxPoint x="475" y="580" as="targetPoint"/>
                    </mxGeometry>
                </mxCell>
                <mxCell id="msg16" value="3.3 ดึงข้อมูลเงื่อนไข" style="html=1;verticalAlign=bottom;endArrow=block;edgeStyle=elbowEdgeStyle;elbow=vertical;curved=0;rounded=0;fontSize=10;" parent="1" edge="1">
                    <mxGeometry relative="1" as="geometry">
                        <mxPoint x="485" y="595" as="sourcePoint"/>
                        <mxPoint x="595" y="595" as="targetPoint"/>
                    </mxGeometry>
                </mxCell>
                <mxCell id="msg17" value="3.4 ข้อมูลเงื่อนไข" style="html=1;verticalAlign=bottom;endArrow=open;dashed=1;endSize=8;edgeStyle=elbowEdgeStyle;elbow=vertical;curved=0;rounded=0;fontSize=10;" parent="1" edge="1">
                    <mxGeometry relative="1" as="geometry">
                        <mxPoint x="595" y="610" as="sourcePoint"/>
                        <mxPoint x="485" y="610" as="targetPoint"/>
                    </mxGeometry>
                </mxCell>
                <mxCell id="msg18" value="3.5 ประมวลผลและแสดงความสัมพันธ์" style="html=1;verticalAlign=bottom;endArrow=open;dashed=1;endSize=8;edgeStyle=elbowEdgeStyle;elbow=vertical;curved=0;rounded=0;fontSize=10;" parent="1" edge="1">
                    <mxGeometry relative="1" as="geometry">
                        <mxPoint x="475" y="625" as="sourcePoint"/>
                        <mxPoint x="245" y="625" as="targetPoint"/>
                    </mxGeometry>
                </mxCell>
                <mxCell id="msg19" value="3.6 วาดเส้นเชื่อมและไฮไลต์" style="html=1;verticalAlign=bottom;endArrow=open;dashed=1;endSize=8;edgeStyle=elbowEdgeStyle;elbow=vertical;curved=0;rounded=0;fontSize=10;" parent="1" edge="1">
                    <mxGeometry relative="1" as="geometry">
                        <mxPoint x="235" y="640" as="sourcePoint"/>
                        <mxPoint x="125" y="640" as="targetPoint"/>
                    </mxGeometry>
                </mxCell>
                <mxCell id="section4-title" value="4. การสนทนากับแชทบอท (Chatbot Interaction)" style="text;html=1;strokeColor=none;fillColor=#e8f5e8;align=left;verticalAlign=middle;whiteSpace=wrap;rounded=1;fontSize=12;fontStyle=1;" parent="1" vertex="1">
                    <mxGeometry x="80" y="670" width="350" height="25" as="geometry"/>
                </mxCell>
                <mxCell id="msg20" value="4.1 พิมพ์คำถาม" style="html=1;verticalAlign=bottom;endArrow=block;edgeStyle=elbowEdgeStyle;elbow=vertical;curved=0;rounded=0;fontSize=10;" parent="1" edge="1">
                    <mxGeometry relative="1" as="geometry">
                        <mxPoint x="125" y="720" as="sourcePoint"/>
                        <mxPoint x="235" y="720" as="targetPoint"/>
                    </mxGeometry>
                </mxCell>
                <mxCell id="msg21" value="4.2 ส่งคำถามไป n8n" style="html=1;verticalAlign=bottom;endArrow=block;edgeStyle=elbowEdgeStyle;elbow=vertical;curved=0;rounded=0;fontSize=10;" parent="1" edge="1">
                    <mxGeometry relative="1" as="geometry">
                        <mxPoint x="245" y="735" as="sourcePoint"/>
                        <mxPoint x="715" y="735" as="targetPoint"/>
                    </mxGeometry>
                </mxCell>
                <mxCell id="msg22" value="4.3 คำตอบ" style="html=1;verticalAlign=bottom;endArrow=open;dashed=1;endSize=8;edgeStyle=elbowEdgeStyle;elbow=vertical;curved=0;rounded=0;fontSize=10;" parent="1" edge="1">
                    <mxGeometry relative="1" as="geometry">
                        <mxPoint x="715" y="750" as="sourcePoint"/>
                        <mxPoint x="245" y="750" as="targetPoint"/>
                    </mxGeometry>
                </mxCell>
                <mxCell id="msg23" value="4.4 แสดงคำตอบ" style="html=1;verticalAlign=bottom;endArrow=open;dashed=1;endSize=8;edgeStyle=elbowEdgeStyle;elbow=vertical;curved=0;rounded=0;fontSize=10;" parent="1" edge="1">
                    <mxGeometry relative="1" as="geometry">
                        <mxPoint x="235" y="765" as="sourcePoint"/>
                        <mxPoint x="125" y="765" as="targetPoint"/>
                    </mxGeometry>
                </mxCell>
                <mxCell id="note1" value="หมายเหตุ:&#xa;• เส้นทึบ: การเรียกใช้ฟังก์ชัน&#xa;• เส้นประ: การตอบกลับ&#xa;• สีฟ้า: Frontend Components&#xa;• สีม่วง: Service Layer&#xa;• สีเหลือง: External Services" style="rounded=1;whiteSpace=wrap;html=1;fillColor=#f8f9fa;strokeColor=#dee2e6;fontSize=10;align=left;verticalAlign=top;" parent="1" vertex="1">
                    <mxGeometry x="115" y="850" width="250" height="100" as="geometry"/>
                </mxCell>
            </root>
        </mxGraphModel>
    </diagram>
</mxfile>